<svg width="590" height="601" viewBox="0 0 590 601" fill="none" xmlns="http://www.w3.org/2000/svg">
<path fill-rule="evenodd" clip-rule="evenodd" d="M308.061 87.5987C356.115 97.5849 412.495 40.9669 451.357 70.9459C491.312 101.769 458.028 170.065 476.057 217.198C492.316 259.704 536.192 285.318 549.953 328.698C570.162 392.405 611.672 469.028 573.301 523.751C536.103 576.802 450.282 549.352 386.655 561.588C330.3 572.426 270.741 619.595 220.664 591.566C168.405 562.316 188.614 476.6 151.228 429.816C116.312 386.123 41.2758 385.922 16.329 335.864C-10.1849 282.661 -0.394079 217.887 17.3354 161.149C36.5685 99.5999 58.0754 18.0248 120.59 2.20925C188.536 -14.9804 239.44 73.3387 308.061 87.5987Z" fill="#e5e5e5"/>
</svg>
