<svg width="587" height="615" viewBox="0 0 587 615" fill="none" xmlns="http://www.w3.org/2000/svg">
<path fill-rule="evenodd" clip-rule="evenodd" d="M342.658 5.47078C407.511 -4.2437 486.197 -5.79795 531.058 42.0329C575.879 89.8225 546.586 167.306 555.341 232.238C562.031 281.849 576.281 327.183 576.256 377.243C576.218 451.598 610.509 544.175 555.159 593.825C501.078 642.336 415.142 591.702 342.658 586.785C276.65 582.308 206.038 601.707 150.118 566.351C92.7707 530.091 68.1394 461.815 44.4495 398.236C19.7236 331.877 -19.4341 257.485 11.2523 193.662C41.7918 130.146 129.956 127.736 191.241 92.9351C243.198 63.4308 283.568 14.3221 342.658 5.47078Z" fill="#43A047"/>
</svg>
