<svg width="839" height="814" viewBox="0 0 839 814" fill="none" xmlns="http://www.w3.org/2000/svg">
<path fill-rule="evenodd" clip-rule="evenodd" d="M281.027 127.208C326.293 112.688 376.966 107.842 421.807 123.625C464.9 138.793 481.632 194.937 523.746 212.642C575.669 234.47 644.315 201.608 688.968 235.939C731.23 268.43 749.763 330.15 745.727 383.305C741.7 436.351 689.483 471.658 667.398 520.056C647.93 562.718 656.201 618.424 623.224 651.763C590.241 685.109 538.351 690.3 491.988 697.395C450.587 703.731 409.631 685.482 368.088 690.808C312.969 697.874 255.581 764.176 209.143 733.656C161.701 702.475 204.256 619.638 181 567.849C162.446 526.529 96.2173 513.879 90.2922 468.974C84.3693 424.084 140.27 393.675 152.258 350.013C165.081 303.31 138.016 248.82 162.251 206.888C186.41 165.086 235.054 141.956 281.027 127.208Z" fill="#e5e5e5"/>
</svg>
