<svg width="200" height="200" viewBox="0 0 200 200" fill="none" xmlns="http://www.w3.org/2000/svg">
<circle cx="2" cy="2" r="2" fill="#D2D6DB"/>
<circle cx="12" cy="2" r="2" fill="#D2D6DB"/>
<circle cx="22" cy="2" r="2" fill="#D2D6DB"/>
<circle cx="32" cy="2" r="2" fill="#D2D6DB"/>
<circle cx="42" cy="2" r="2" fill="#D2D6DB"/>
<circle cx="52" cy="2" r="2" fill="#D2D6DB"/>
<circle cx="62" cy="2" r="2" fill="#D2D6DB"/>
<circle cx="72" cy="2" r="2" fill="#D2D6DB"/>
<circle cx="82" cy="2" r="2" fill="#D2D6DB"/>
<circle cx="92" cy="2" r="2" fill="#D2D6DB"/>
<circle cx="102" cy="2" r="2" fill="#D2D6DB"/>
<circle cx="112" cy="2" r="2" fill="#D2D6DB"/>
<circle cx="122" cy="2" r="2" fill="#D2D6DB"/>
<circle cx="132" cy="2" r="2" fill="#D2D6DB"/>
<circle cx="142" cy="2" r="2" fill="#D2D6DB"/>
<circle cx="152" cy="2" r="2" fill="#D2D6DB"/>
<circle cx="162" cy="2" r="2" fill="#D2D6DB"/>
<circle cx="172" cy="2" r="2" fill="#D2D6DB"/>
<circle cx="182" cy="2" r="2" fill="#D2D6DB"/>
<circle cx="192" cy="2" r="2" fill="#D2D6DB"/>
<circle cx="2" cy="12" r="2" fill="#D2D6DB"/>
<circle cx="12" cy="12" r="2" fill="#D2D6DB"/>
<circle cx="22" cy="12" r="2" fill="#D2D6DB"/>
<circle cx="32" cy="12" r="2" fill="#D2D6DB"/>
<circle cx="42" cy="12" r="2" fill="#D2D6DB"/>
<circle cx="52" cy="12" r="2" fill="#D2D6DB"/>
<circle cx="62" cy="12" r="2" fill="#D2D6DB"/>
<circle cx="72" cy="12" r="2" fill="#D2D6DB"/>
<circle cx="82" cy="12" r="2" fill="#D2D6DB"/>
<circle cx="92" cy="12" r="2" fill="#D2D6DB"/>
<circle cx="102" cy="12" r="2" fill="#D2D6DB"/>
<circle cx="112" cy="12" r="2" fill="#D2D6DB"/>
<circle cx="122" cy="12" r="2" fill="#D2D6DB"/>
<circle cx="132" cy="12" r="2" fill="#D2D6DB"/>
<circle cx="142" cy="12" r="2" fill="#D2D6DB"/>
<circle cx="152" cy="12" r="2" fill="#D2D6DB"/>
<circle cx="162" cy="12" r="2" fill="#D2D6DB"/>
<circle cx="172" cy="12" r="2" fill="#D2D6DB"/>
<circle cx="182" cy="12" r="2" fill="#D2D6DB"/>
<circle cx="192" cy="12" r="2" fill="#D2D6DB"/>
<circle cx="2" cy="22" r="2" fill="#D2D6DB"/>
<circle cx="12" cy="22" r="2" fill="#D2D6DB"/>
<circle cx="22" cy="22" r="2" fill="#D2D6DB"/>
<circle cx="32" cy="22" r="2" fill="#D2D6DB"/>
<circle cx="42" cy="22" r="2" fill="#D2D6DB"/>
<circle cx="52" cy="22" r="2" fill="#D2D6DB"/>
<circle cx="62" cy="22" r="2" fill="#D2D6DB"/>
<circle cx="72" cy="22" r="2" fill="#D2D6DB"/>
<circle cx="82" cy="22" r="2" fill="#D2D6DB"/>
<circle cx="92" cy="22" r="2" fill="#D2D6DB"/>
<circle cx="102" cy="22" r="2" fill="#D2D6DB"/>
<circle cx="112" cy="22" r="2" fill="#D2D6DB"/>
<circle cx="122" cy="22" r="2" fill="#D2D6DB"/>
<circle cx="132" cy="22" r="2" fill="#D2D6DB"/>
<circle cx="142" cy="22" r="2" fill="#D2D6DB"/>
<circle cx="152" cy="22" r="2" fill="#D2D6DB"/>
<circle cx="162" cy="22" r="2" fill="#D2D6DB"/>
<circle cx="172" cy="22" r="2" fill="#D2D6DB"/>
<circle cx="182" cy="22" r="2" fill="#D2D6DB"/>
<circle cx="192" cy="22" r="2" fill="#D2D6DB"/>
<circle cx="2" cy="32" r="2" fill="#D2D6DB"/>
<circle cx="12" cy="32" r="2" fill="#D2D6DB"/>
<circle cx="22" cy="32" r="2" fill="#D2D6DB"/>
<circle cx="32" cy="32" r="2" fill="#D2D6DB"/>
<circle cx="42" cy="32" r="2" fill="#D2D6DB"/>
<circle cx="52" cy="32" r="2" fill="#D2D6DB"/>
<circle cx="62" cy="32" r="2" fill="#D2D6DB"/>
<circle cx="72" cy="32" r="2" fill="#D2D6DB"/>
<circle cx="82" cy="32" r="2" fill="#D2D6DB"/>
<circle cx="92" cy="32" r="2" fill="#D2D6DB"/>
<circle cx="102" cy="32" r="2" fill="#D2D6DB"/>
<circle cx="112" cy="32" r="2" fill="#D2D6DB"/>
<circle cx="122" cy="32" r="2" fill="#D2D6DB"/>
<circle cx="132" cy="32" r="2" fill="#D2D6DB"/>
<circle cx="142" cy="32" r="2" fill="#D2D6DB"/>
<circle cx="152" cy="32" r="2" fill="#D2D6DB"/>
<circle cx="162" cy="32" r="2" fill="#D2D6DB"/>
<circle cx="172" cy="32" r="2" fill="#D2D6DB"/>
<circle cx="182" cy="32" r="2" fill="#D2D6DB"/>
<circle cx="192" cy="32" r="2" fill="#D2D6DB"/>
<circle cx="2" cy="42" r="2" fill="#D2D6DB"/>
<circle cx="12" cy="42" r="2" fill="#D2D6DB"/>
<circle cx="22" cy="42" r="2" fill="#D2D6DB"/>
<circle cx="32" cy="42" r="2" fill="#D2D6DB"/>
<circle cx="42" cy="42" r="2" fill="#D2D6DB"/>
<circle cx="52" cy="42" r="2" fill="#D2D6DB"/>
<circle cx="62" cy="42" r="2" fill="#D2D6DB"/>
<circle cx="72" cy="42" r="2" fill="#D2D6DB"/>
<circle cx="82" cy="42" r="2" fill="#D2D6DB"/>
<circle cx="92" cy="42" r="2" fill="#D2D6DB"/>
<circle cx="102" cy="42" r="2" fill="#D2D6DB"/>
<circle cx="112" cy="42" r="2" fill="#D2D6DB"/>
<circle cx="122" cy="42" r="2" fill="#D2D6DB"/>
<circle cx="132" cy="42" r="2" fill="#D2D6DB"/>
<circle cx="142" cy="42" r="2" fill="#D2D6DB"/>
<circle cx="152" cy="42" r="2" fill="#D2D6DB"/>
<circle cx="162" cy="42" r="2" fill="#D2D6DB"/>
<circle cx="172" cy="42" r="2" fill="#D2D6DB"/>
<circle cx="182" cy="42" r="2" fill="#D2D6DB"/>
<circle cx="192" cy="42" r="2" fill="#D2D6DB"/>
<circle cx="2" cy="52" r="2" fill="#D2D6DB"/>
<circle cx="12" cy="52" r="2" fill="#D2D6DB"/>
<circle cx="22" cy="52" r="2" fill="#D2D6DB"/>
<circle cx="32" cy="52" r="2" fill="#D2D6DB"/>
<circle cx="42" cy="52" r="2" fill="#D2D6DB"/>
<circle cx="52" cy="52" r="2" fill="#D2D6DB"/>
<circle cx="62" cy="52" r="2" fill="#D2D6DB"/>
<circle cx="72" cy="52" r="2" fill="#D2D6DB"/>
<circle cx="82" cy="52" r="2" fill="#D2D6DB"/>
<circle cx="92" cy="52" r="2" fill="#D2D6DB"/>
<circle cx="102" cy="52" r="2" fill="#D2D6DB"/>
<circle cx="112" cy="52" r="2" fill="#D2D6DB"/>
<circle cx="122" cy="52" r="2" fill="#D2D6DB"/>
<circle cx="132" cy="52" r="2" fill="#D2D6DB"/>
<circle cx="142" cy="52" r="2" fill="#D2D6DB"/>
<circle cx="152" cy="52" r="2" fill="#D2D6DB"/>
<circle cx="162" cy="52" r="2" fill="#D2D6DB"/>
<circle cx="172" cy="52" r="2" fill="#D2D6DB"/>
<circle cx="182" cy="52" r="2" fill="#D2D6DB"/>
<circle cx="192" cy="52" r="2" fill="#D2D6DB"/>
<circle cx="2" cy="62" r="2" fill="#D2D6DB"/>
<circle cx="12" cy="62" r="2" fill="#D2D6DB"/>
<circle cx="22" cy="62" r="2" fill="#D2D6DB"/>
<circle cx="32" cy="62" r="2" fill="#D2D6DB"/>
<circle cx="42" cy="62" r="2" fill="#D2D6DB"/>
<circle cx="52" cy="62" r="2" fill="#D2D6DB"/>
<circle cx="62" cy="62" r="2" fill="#D2D6DB"/>
<circle cx="72" cy="62" r="2" fill="#D2D6DB"/>
<circle cx="82" cy="62" r="2" fill="#D2D6DB"/>
<circle cx="92" cy="62" r="2" fill="#D2D6DB"/>
<circle cx="102" cy="62" r="2" fill="#D2D6DB"/>
<circle cx="112" cy="62" r="2" fill="#D2D6DB"/>
<circle cx="122" cy="62" r="2" fill="#D2D6DB"/>
<circle cx="132" cy="62" r="2" fill="#D2D6DB"/>
<circle cx="142" cy="62" r="2" fill="#D2D6DB"/>
<circle cx="152" cy="62" r="2" fill="#D2D6DB"/>
<circle cx="162" cy="62" r="2" fill="#D2D6DB"/>
<circle cx="172" cy="62" r="2" fill="#D2D6DB"/>
<circle cx="182" cy="62" r="2" fill="#D2D6DB"/>
<circle cx="192" cy="62" r="2" fill="#D2D6DB"/>
<circle cx="2" cy="72" r="2" fill="#D2D6DB"/>
<circle cx="12" cy="72" r="2" fill="#D2D6DB"/>
<circle cx="22" cy="72" r="2" fill="#D2D6DB"/>
<circle cx="32" cy="72" r="2" fill="#D2D6DB"/>
<circle cx="42" cy="72" r="2" fill="#D2D6DB"/>
<circle cx="52" cy="72" r="2" fill="#D2D6DB"/>
<circle cx="62" cy="72" r="2" fill="#D2D6DB"/>
<circle cx="72" cy="72" r="2" fill="#D2D6DB"/>
<circle cx="82" cy="72" r="2" fill="#D2D6DB"/>
<circle cx="92" cy="72" r="2" fill="#D2D6DB"/>
<circle cx="102" cy="72" r="2" fill="#D2D6DB"/>
<circle cx="112" cy="72" r="2" fill="#D2D6DB"/>
<circle cx="122" cy="72" r="2" fill="#D2D6DB"/>
<circle cx="132" cy="72" r="2" fill="#D2D6DB"/>
<circle cx="142" cy="72" r="2" fill="#D2D6DB"/>
<circle cx="152" cy="72" r="2" fill="#D2D6DB"/>
<circle cx="162" cy="72" r="2" fill="#D2D6DB"/>
<circle cx="172" cy="72" r="2" fill="#D2D6DB"/>
<circle cx="182" cy="72" r="2" fill="#D2D6DB"/>
<circle cx="192" cy="72" r="2" fill="#D2D6DB"/>
<circle cx="2" cy="82" r="2" fill="#D2D6DB"/>
<circle cx="12" cy="82" r="2" fill="#D2D6DB"/>
<circle cx="22" cy="82" r="2" fill="#D2D6DB"/>
<circle cx="32" cy="82" r="2" fill="#D2D6DB"/>
<circle cx="42" cy="82" r="2" fill="#D2D6DB"/>
<circle cx="52" cy="82" r="2" fill="#D2D6DB"/>
<circle cx="62" cy="82" r="2" fill="#D2D6DB"/>
<circle cx="72" cy="82" r="2" fill="#D2D6DB"/>
<circle cx="82" cy="82" r="2" fill="#D2D6DB"/>
<circle cx="92" cy="82" r="2" fill="#D2D6DB"/>
<circle cx="102" cy="82" r="2" fill="#D2D6DB"/>
<circle cx="112" cy="82" r="2" fill="#D2D6DB"/>
<circle cx="122" cy="82" r="2" fill="#D2D6DB"/>
<circle cx="132" cy="82" r="2" fill="#D2D6DB"/>
<circle cx="142" cy="82" r="2" fill="#D2D6DB"/>
<circle cx="152" cy="82" r="2" fill="#D2D6DB"/>
<circle cx="162" cy="82" r="2" fill="#D2D6DB"/>
<circle cx="172" cy="82" r="2" fill="#D2D6DB"/>
<circle cx="182" cy="82" r="2" fill="#D2D6DB"/>
<circle cx="192" cy="82" r="2" fill="#D2D6DB"/>
<circle cx="2" cy="92" r="2" fill="#D2D6DB"/>
<circle cx="12" cy="92" r="2" fill="#D2D6DB"/>
<circle cx="22" cy="92" r="2" fill="#D2D6DB"/>
<circle cx="32" cy="92" r="2" fill="#D2D6DB"/>
<circle cx="42" cy="92" r="2" fill="#D2D6DB"/>
<circle cx="52" cy="92" r="2" fill="#D2D6DB"/>
<circle cx="62" cy="92" r="2" fill="#D2D6DB"/>
<circle cx="72" cy="92" r="2" fill="#D2D6DB"/>
<circle cx="82" cy="92" r="2" fill="#D2D6DB"/>
<circle cx="92" cy="92" r="2" fill="#D2D6DB"/>
<circle cx="102" cy="92" r="2" fill="#D2D6DB"/>
<circle cx="112" cy="92" r="2" fill="#D2D6DB"/>
<circle cx="122" cy="92" r="2" fill="#D2D6DB"/>
<circle cx="132" cy="92" r="2" fill="#D2D6DB"/>
<circle cx="142" cy="92" r="2" fill="#D2D6DB"/>
<circle cx="152" cy="92" r="2" fill="#D2D6DB"/>
<circle cx="162" cy="92" r="2" fill="#D2D6DB"/>
<circle cx="172" cy="92" r="2" fill="#D2D6DB"/>
<circle cx="182" cy="92" r="2" fill="#D2D6DB"/>
<circle cx="192" cy="92" r="2" fill="#D2D6DB"/>
<circle cx="2" cy="102" r="2" fill="#D2D6DB"/>
<circle cx="12" cy="102" r="2" fill="#D2D6DB"/>
<circle cx="22" cy="102" r="2" fill="#D2D6DB"/>
<circle cx="32" cy="102" r="2" fill="#D2D6DB"/>
<circle cx="42" cy="102" r="2" fill="#D2D6DB"/>
<circle cx="52" cy="102" r="2" fill="#D2D6DB"/>
<circle cx="62" cy="102" r="2" fill="#D2D6DB"/>
<circle cx="72" cy="102" r="2" fill="#D2D6DB"/>
<circle cx="82" cy="102" r="2" fill="#D2D6DB"/>
<circle cx="92" cy="102" r="2" fill="#D2D6DB"/>
<circle cx="102" cy="102" r="2" fill="#D2D6DB"/>
<circle cx="112" cy="102" r="2" fill="#D2D6DB"/>
<circle cx="122" cy="102" r="2" fill="#D2D6DB"/>
<circle cx="132" cy="102" r="2" fill="#D2D6DB"/>
<circle cx="142" cy="102" r="2" fill="#D2D6DB"/>
<circle cx="152" cy="102" r="2" fill="#D2D6DB"/>
<circle cx="162" cy="102" r="2" fill="#D2D6DB"/>
<circle cx="172" cy="102" r="2" fill="#D2D6DB"/>
<circle cx="182" cy="102" r="2" fill="#D2D6DB"/>
<circle cx="192" cy="102" r="2" fill="#D2D6DB"/>
<circle cx="2" cy="112" r="2" fill="#D2D6DB"/>
<circle cx="12" cy="112" r="2" fill="#D2D6DB"/>
<circle cx="22" cy="112" r="2" fill="#D2D6DB"/>
<circle cx="32" cy="112" r="2" fill="#D2D6DB"/>
<circle cx="42" cy="112" r="2" fill="#D2D6DB"/>
<circle cx="52" cy="112" r="2" fill="#D2D6DB"/>
<circle cx="62" cy="112" r="2" fill="#D2D6DB"/>
<circle cx="72" cy="112" r="2" fill="#D2D6DB"/>
<circle cx="82" cy="112" r="2" fill="#D2D6DB"/>
<circle cx="92" cy="112" r="2" fill="#D2D6DB"/>
<circle cx="102" cy="112" r="2" fill="#D2D6DB"/>
<circle cx="112" cy="112" r="2" fill="#D2D6DB"/>
<circle cx="122" cy="112" r="2" fill="#D2D6DB"/>
<circle cx="132" cy="112" r="2" fill="#D2D6DB"/>
<circle cx="142" cy="112" r="2" fill="#D2D6DB"/>
<circle cx="152" cy="112" r="2" fill="#D2D6DB"/>
<circle cx="162" cy="112" r="2" fill="#D2D6DB"/>
<circle cx="172" cy="112" r="2" fill="#D2D6DB"/>
<circle cx="182" cy="112" r="2" fill="#D2D6DB"/>
<circle cx="192" cy="112" r="2" fill="#D2D6DB"/>
<circle cx="2" cy="122" r="2" fill="#D2D6DB"/>
<circle cx="12" cy="122" r="2" fill="#D2D6DB"/>
<circle cx="22" cy="122" r="2" fill="#D2D6DB"/>
<circle cx="32" cy="122" r="2" fill="#D2D6DB"/>
<circle cx="42" cy="122" r="2" fill="#D2D6DB"/>
<circle cx="52" cy="122" r="2" fill="#D2D6DB"/>
<circle cx="62" cy="122" r="2" fill="#D2D6DB"/>
<circle cx="72" cy="122" r="2" fill="#D2D6DB"/>
<circle cx="82" cy="122" r="2" fill="#D2D6DB"/>
<circle cx="92" cy="122" r="2" fill="#D2D6DB"/>
<circle cx="102" cy="122" r="2" fill="#D2D6DB"/>
<circle cx="112" cy="122" r="2" fill="#D2D6DB"/>
<circle cx="122" cy="122" r="2" fill="#D2D6DB"/>
<circle cx="132" cy="122" r="2" fill="#D2D6DB"/>
<circle cx="142" cy="122" r="2" fill="#D2D6DB"/>
<circle cx="152" cy="122" r="2" fill="#D2D6DB"/>
<circle cx="162" cy="122" r="2" fill="#D2D6DB"/>
<circle cx="172" cy="122" r="2" fill="#D2D6DB"/>
<circle cx="182" cy="122" r="2" fill="#D2D6DB"/>
<circle cx="192" cy="122" r="2" fill="#D2D6DB"/>
<circle cx="2" cy="132" r="2" fill="#D2D6DB"/>
<circle cx="12" cy="132" r="2" fill="#D2D6DB"/>
<circle cx="22" cy="132" r="2" fill="#D2D6DB"/>
<circle cx="32" cy="132" r="2" fill="#D2D6DB"/>
<circle cx="42" cy="132" r="2" fill="#D2D6DB"/>
<circle cx="52" cy="132" r="2" fill="#D2D6DB"/>
<circle cx="62" cy="132" r="2" fill="#D2D6DB"/>
<circle cx="72" cy="132" r="2" fill="#D2D6DB"/>
<circle cx="82" cy="132" r="2" fill="#D2D6DB"/>
<circle cx="92" cy="132" r="2" fill="#D2D6DB"/>
<circle cx="102" cy="132" r="2" fill="#D2D6DB"/>
<circle cx="112" cy="132" r="2" fill="#D2D6DB"/>
<circle cx="122" cy="132" r="2" fill="#D2D6DB"/>
<circle cx="132" cy="132" r="2" fill="#D2D6DB"/>
<circle cx="142" cy="132" r="2" fill="#D2D6DB"/>
<circle cx="152" cy="132" r="2" fill="#D2D6DB"/>
<circle cx="162" cy="132" r="2" fill="#D2D6DB"/>
<circle cx="172" cy="132" r="2" fill="#D2D6DB"/>
<circle cx="182" cy="132" r="2" fill="#D2D6DB"/>
<circle cx="192" cy="132" r="2" fill="#D2D6DB"/>
<circle cx="2" cy="142" r="2" fill="#D2D6DB"/>
<circle cx="12" cy="142" r="2" fill="#D2D6DB"/>
<circle cx="22" cy="142" r="2" fill="#D2D6DB"/>
<circle cx="32" cy="142" r="2" fill="#D2D6DB"/>
<circle cx="42" cy="142" r="2" fill="#D2D6DB"/>
<circle cx="52" cy="142" r="2" fill="#D2D6DB"/>
<circle cx="62" cy="142" r="2" fill="#D2D6DB"/>
<circle cx="72" cy="142" r="2" fill="#D2D6DB"/>
<circle cx="82" cy="142" r="2" fill="#D2D6DB"/>
<circle cx="92" cy="142" r="2" fill="#D2D6DB"/>
<circle cx="102" cy="142" r="2" fill="#D2D6DB"/>
<circle cx="112" cy="142" r="2" fill="#D2D6DB"/>
<circle cx="122" cy="142" r="2" fill="#D2D6DB"/>
<circle cx="132" cy="142" r="2" fill="#D2D6DB"/>
<circle cx="142" cy="142" r="2" fill="#D2D6DB"/>
<circle cx="152" cy="142" r="2" fill="#D2D6DB"/>
<circle cx="162" cy="142" r="2" fill="#D2D6DB"/>
<circle cx="172" cy="142" r="2" fill="#D2D6DB"/>
<circle cx="182" cy="142" r="2" fill="#D2D6DB"/>
<circle cx="192" cy="142" r="2" fill="#D2D6DB"/>
<circle cx="2" cy="152" r="2" fill="#D2D6DB"/>
<circle cx="12" cy="152" r="2" fill="#D2D6DB"/>
<circle cx="22" cy="152" r="2" fill="#D2D6DB"/>
<circle cx="32" cy="152" r="2" fill="#D2D6DB"/>
<circle cx="42" cy="152" r="2" fill="#D2D6DB"/>
<circle cx="52" cy="152" r="2" fill="#D2D6DB"/>
<circle cx="62" cy="152" r="2" fill="#D2D6DB"/>
<circle cx="72" cy="152" r="2" fill="#D2D6DB"/>
<circle cx="82" cy="152" r="2" fill="#D2D6DB"/>
<circle cx="92" cy="152" r="2" fill="#D2D6DB"/>
<circle cx="102" cy="152" r="2" fill="#D2D6DB"/>
<circle cx="112" cy="152" r="2" fill="#D2D6DB"/>
<circle cx="122" cy="152" r="2" fill="#D2D6DB"/>
<circle cx="132" cy="152" r="2" fill="#D2D6DB"/>
<circle cx="142" cy="152" r="2" fill="#D2D6DB"/>
<circle cx="152" cy="152" r="2" fill="#D2D6DB"/>
<circle cx="162" cy="152" r="2" fill="#D2D6DB"/>
<circle cx="172" cy="152" r="2" fill="#D2D6DB"/>
<circle cx="182" cy="152" r="2" fill="#D2D6DB"/>
<circle cx="192" cy="152" r="2" fill="#D2D6DB"/>
<circle cx="2" cy="162" r="2" fill="#D2D6DB"/>
<circle cx="12" cy="162" r="2" fill="#D2D6DB"/>
<circle cx="22" cy="162" r="2" fill="#D2D6DB"/>
<circle cx="32" cy="162" r="2" fill="#D2D6DB"/>
<circle cx="42" cy="162" r="2" fill="#D2D6DB"/>
<circle cx="52" cy="162" r="2" fill="#D2D6DB"/>
<circle cx="62" cy="162" r="2" fill="#D2D6DB"/>
<circle cx="72" cy="162" r="2" fill="#D2D6DB"/>
<circle cx="82" cy="162" r="2" fill="#D2D6DB"/>
<circle cx="92" cy="162" r="2" fill="#D2D6DB"/>
<circle cx="102" cy="162" r="2" fill="#D2D6DB"/>
<circle cx="112" cy="162" r="2" fill="#D2D6DB"/>
<circle cx="122" cy="162" r="2" fill="#D2D6DB"/>
<circle cx="132" cy="162" r="2" fill="#D2D6DB"/>
<circle cx="142" cy="162" r="2" fill="#D2D6DB"/>
<circle cx="152" cy="162" r="2" fill="#D2D6DB"/>
<circle cx="162" cy="162" r="2" fill="#D2D6DB"/>
<circle cx="172" cy="162" r="2" fill="#D2D6DB"/>
<circle cx="182" cy="162" r="2" fill="#D2D6DB"/>
<circle cx="192" cy="162" r="2" fill="#D2D6DB"/>
<circle cx="2" cy="172" r="2" fill="#D2D6DB"/>
<circle cx="12" cy="172" r="2" fill="#D2D6DB"/>
<circle cx="22" cy="172" r="2" fill="#D2D6DB"/>
<circle cx="32" cy="172" r="2" fill="#D2D6DB"/>
<circle cx="42" cy="172" r="2" fill="#D2D6DB"/>
<circle cx="52" cy="172" r="2" fill="#D2D6DB"/>
<circle cx="62" cy="172" r="2" fill="#D2D6DB"/>
<circle cx="72" cy="172" r="2" fill="#D2D6DB"/>
<circle cx="82" cy="172" r="2" fill="#D2D6DB"/>
<circle cx="92" cy="172" r="2" fill="#D2D6DB"/>
<circle cx="102" cy="172" r="2" fill="#D2D6DB"/>
<circle cx="112" cy="172" r="2" fill="#D2D6DB"/>
<circle cx="122" cy="172" r="2" fill="#D2D6DB"/>
<circle cx="132" cy="172" r="2" fill="#D2D6DB"/>
<circle cx="142" cy="172" r="2" fill="#D2D6DB"/>
<circle cx="152" cy="172" r="2" fill="#D2D6DB"/>
<circle cx="162" cy="172" r="2" fill="#D2D6DB"/>
<circle cx="172" cy="172" r="2" fill="#D2D6DB"/>
<circle cx="182" cy="172" r="2" fill="#D2D6DB"/>
<circle cx="192" cy="172" r="2" fill="#D2D6DB"/>
<circle cx="2" cy="182" r="2" fill="#D2D6DB"/>
<circle cx="12" cy="182" r="2" fill="#D2D6DB"/>
<circle cx="22" cy="182" r="2" fill="#D2D6DB"/>
<circle cx="32" cy="182" r="2" fill="#D2D6DB"/>
<circle cx="42" cy="182" r="2" fill="#D2D6DB"/>
<circle cx="52" cy="182" r="2" fill="#D2D6DB"/>
<circle cx="62" cy="182" r="2" fill="#D2D6DB"/>
<circle cx="72" cy="182" r="2" fill="#D2D6DB"/>
<circle cx="82" cy="182" r="2" fill="#D2D6DB"/>
<circle cx="92" cy="182" r="2" fill="#D2D6DB"/>
<circle cx="102" cy="182" r="2" fill="#D2D6DB"/>
<circle cx="112" cy="182" r="2" fill="#D2D6DB"/>
<circle cx="122" cy="182" r="2" fill="#D2D6DB"/>
<circle cx="132" cy="182" r="2" fill="#D2D6DB"/>
<circle cx="142" cy="182" r="2" fill="#D2D6DB"/>
<circle cx="152" cy="182" r="2" fill="#D2D6DB"/>
<circle cx="162" cy="182" r="2" fill="#D2D6DB"/>
<circle cx="172" cy="182" r="2" fill="#D2D6DB"/>
<circle cx="182" cy="182" r="2" fill="#D2D6DB"/>
<circle cx="192" cy="182" r="2" fill="#D2D6DB"/>
<circle cx="2" cy="192" r="2" fill="#D2D6DB"/>
<circle cx="12" cy="192" r="2" fill="#D2D6DB"/>
<circle cx="22" cy="192" r="2" fill="#D2D6DB"/>
<circle cx="32" cy="192" r="2" fill="#D2D6DB"/>
<circle cx="42" cy="192" r="2" fill="#D2D6DB"/>
<circle cx="52" cy="192" r="2" fill="#D2D6DB"/>
<circle cx="62" cy="192" r="2" fill="#D2D6DB"/>
<circle cx="72" cy="192" r="2" fill="#D2D6DB"/>
<circle cx="82" cy="192" r="2" fill="#D2D6DB"/>
<circle cx="92" cy="192" r="2" fill="#D2D6DB"/>
<circle cx="102" cy="192" r="2" fill="#D2D6DB"/>
<circle cx="112" cy="192" r="2" fill="#D2D6DB"/>
<circle cx="122" cy="192" r="2" fill="#D2D6DB"/>
<circle cx="132" cy="192" r="2" fill="#D2D6DB"/>
<circle cx="142" cy="192" r="2" fill="#D2D6DB"/>
<circle cx="152" cy="192" r="2" fill="#D2D6DB"/>
<circle cx="162" cy="192" r="2" fill="#D2D6DB"/>
<circle cx="172" cy="192" r="2" fill="#D2D6DB"/>
<circle cx="182" cy="192" r="2" fill="#D2D6DB"/>
<circle cx="192" cy="192" r="2" fill="#D2D6DB"/>
</svg>
