<svg width="100" height="100" viewBox="0 0 100 100" fill="none" xmlns="http://www.w3.org/2000/svg">
<circle cx="1.5" cy="1.5" r="1.5" fill="#5F5FFF"/>
<circle cx="12.5" cy="1.5" r="1.5" fill="#5F5FFF"/>
<circle cx="23.5" cy="1.5" r="1.5" fill="#5F5FFF"/>
<circle cx="34.5" cy="1.5" r="1.5" fill="#5F5FFF"/>
<circle cx="45.5" cy="1.5" r="1.5" fill="#5F5FFF"/>
<circle cx="56.5" cy="1.5" r="1.5" fill="#5F5FFF"/>
<circle cx="67.5" cy="1.5" r="1.5" fill="#5F5FFF"/>
<circle cx="78.5" cy="1.5" r="1.5" fill="#5F5FFF"/>
<circle cx="89.5" cy="1.5" r="1.5" fill="#5F5FFF"/>
<circle cx="1.5" cy="12.5" r="1.5" fill="#5F5FFF"/>
<circle cx="12.5" cy="12.5" r="1.5" fill="#5F5FFF"/>
<circle cx="23.5" cy="12.5" r="1.5" fill="#5F5FFF"/>
<circle cx="34.5" cy="12.5" r="1.5" fill="#5F5FFF"/>
<circle cx="45.5" cy="12.5" r="1.5" fill="#5F5FFF"/>
<circle cx="56.5" cy="12.5" r="1.5" fill="#5F5FFF"/>
<circle cx="67.5" cy="12.5" r="1.5" fill="#5F5FFF"/>
<circle cx="78.5" cy="12.5" r="1.5" fill="#5F5FFF"/>
<circle cx="89.5" cy="12.5" r="1.5" fill="#5F5FFF"/>
<circle cx="1.5" cy="23.5" r="1.5" fill="#5F5FFF"/>
<circle cx="12.5" cy="23.5" r="1.5" fill="#5F5FFF"/>
<circle cx="23.5" cy="23.5" r="1.5" fill="#5F5FFF"/>
<circle cx="34.5" cy="23.5" r="1.5" fill="#5F5FFF"/>
<circle cx="45.5" cy="23.5" r="1.5" fill="#5F5FFF"/>
<circle cx="56.5" cy="23.5" r="1.5" fill="#5F5FFF"/>
<circle cx="67.5" cy="23.5" r="1.5" fill="#5F5FFF"/>
<circle cx="78.5" cy="23.5" r="1.5" fill="#5F5FFF"/>
<circle cx="89.5" cy="23.5" r="1.5" fill="#5F5FFF"/>
<circle cx="1.5" cy="34.5" r="1.5" fill="#5F5FFF"/>
<circle cx="12.5" cy="34.5" r="1.5" fill="#5F5FFF"/>
<circle cx="23.5" cy="34.5" r="1.5" fill="#5F5FFF"/>
<circle cx="34.5" cy="34.5" r="1.5" fill="#5F5FFF"/>
<circle cx="45.5" cy="34.5" r="1.5" fill="#5F5FFF"/>
<circle cx="56.5" cy="34.5" r="1.5" fill="#5F5FFF"/>
<circle cx="67.5" cy="34.5" r="1.5" fill="#5F5FFF"/>
<circle cx="78.5" cy="34.5" r="1.5" fill="#5F5FFF"/>
<circle cx="89.5" cy="34.5" r="1.5" fill="#5F5FFF"/>
<circle cx="1.5" cy="45.5" r="1.5" fill="#5F5FFF"/>
<circle cx="12.5" cy="45.5" r="1.5" fill="#5F5FFF"/>
<circle cx="23.5" cy="45.5" r="1.5" fill="#5F5FFF"/>
<circle cx="34.5" cy="45.5" r="1.5" fill="#5F5FFF"/>
<circle cx="45.5" cy="45.5" r="1.5" fill="#5F5FFF"/>
<circle cx="56.5" cy="45.5" r="1.5" fill="#5F5FFF"/>
<circle cx="67.5" cy="45.5" r="1.5" fill="#5F5FFF"/>
<circle cx="78.5" cy="45.5" r="1.5" fill="#5F5FFF"/>
<circle cx="89.5" cy="45.5" r="1.5" fill="#5F5FFF"/>
<circle cx="1.5" cy="56.5" r="1.5" fill="#5F5FFF"/>
<circle cx="12.5" cy="56.5" r="1.5" fill="#5F5FFF"/>
<circle cx="23.5" cy="56.5" r="1.5" fill="#5F5FFF"/>
<circle cx="34.5" cy="56.5" r="1.5" fill="#5F5FFF"/>
<circle cx="45.5" cy="56.5" r="1.5" fill="#5F5FFF"/>
<circle cx="56.5" cy="56.5" r="1.5" fill="#5F5FFF"/>
<circle cx="67.5" cy="56.5" r="1.5" fill="#5F5FFF"/>
<circle cx="78.5" cy="56.5" r="1.5" fill="#5F5FFF"/>
<circle cx="89.5" cy="56.5" r="1.5" fill="#5F5FFF"/>
<circle cx="1.5" cy="67.5" r="1.5" fill="#5F5FFF"/>
<circle cx="12.5" cy="67.5" r="1.5" fill="#5F5FFF"/>
<circle cx="23.5" cy="67.5" r="1.5" fill="#5F5FFF"/>
<circle cx="34.5" cy="67.5" r="1.5" fill="#5F5FFF"/>
<circle cx="45.5" cy="67.5" r="1.5" fill="#5F5FFF"/>
<circle cx="56.5" cy="67.5" r="1.5" fill="#5F5FFF"/>
<circle cx="67.5" cy="67.5" r="1.5" fill="#5F5FFF"/>
<circle cx="78.5" cy="67.5" r="1.5" fill="#5F5FFF"/>
<circle cx="89.5" cy="67.5" r="1.5" fill="#5F5FFF"/>
<circle cx="1.5" cy="78.5" r="1.5" fill="#5F5FFF"/>
<circle cx="12.5" cy="78.5" r="1.5" fill="#5F5FFF"/>
<circle cx="23.5" cy="78.5" r="1.5" fill="#5F5FFF"/>
<circle cx="34.5" cy="78.5" r="1.5" fill="#5F5FFF"/>
<circle cx="45.5" cy="78.5" r="1.5" fill="#5F5FFF"/>
<circle cx="56.5" cy="78.5" r="1.5" fill="#5F5FFF"/>
<circle cx="67.5" cy="78.5" r="1.5" fill="#5F5FFF"/>
<circle cx="78.5" cy="78.5" r="1.5" fill="#5F5FFF"/>
<circle cx="89.5" cy="78.5" r="1.5" fill="#5F5FFF"/>
<circle cx="1.5" cy="89.5" r="1.5" fill="#5F5FFF"/>
<circle cx="12.5" cy="89.5" r="1.5" fill="#5F5FFF"/>
<circle cx="23.5" cy="89.5" r="1.5" fill="#5F5FFF"/>
<circle cx="34.5" cy="89.5" r="1.5" fill="#5F5FFF"/>
<circle cx="45.5" cy="89.5" r="1.5" fill="#5F5FFF"/>
<circle cx="56.5" cy="89.5" r="1.5" fill="#5F5FFF"/>
<circle cx="67.5" cy="89.5" r="1.5" fill="#5F5FFF"/>
<circle cx="78.5" cy="89.5" r="1.5" fill="#5F5FFF"/>
<circle cx="89.5" cy="89.5" r="1.5" fill="#5F5FFF"/>
</svg>
